<?xml version="1.0" encoding="UTF-8" standalone="no"?>
<!-- Created with Inkscape (http://www.inkscape.org/) -->

<svg
   width="784"
   height="288.3"
   viewBox="0 0 207.4 76.27"
   version="1.1"
   id="svg1"
   xmlns="http://www.w3.org/2000/svg"
   xmlns:svg="http://www.w3.org/2000/svg">
  <defs
     id="defs1" />
  <g
     id="layer1"
     transform="translate(-31.75,-29.63)">
    <path
       id="path1-6"
       style="fill-opacity:0.75;stroke-width:2.06275;stroke-dasharray:1.03138, 1.03138"
       d="m 146.2,33.96 a 10.72,4.233 0 0 1 -10.7,4.23 10.72,4.233 0 0 1 -10.7,-4.23 10.72,4.233 0 0 1 10.7,-4.23 10.72,4.233 0 0 1 10.7,4.23 z" />
    <path
       id="path1-6-70"
       style="fill-opacity:0.75;stroke-width:2.71029;stroke-dasharray:1.35515, 1.35515"
       d="m 149.5,67.73 a 14.08,5.562 0 0 1 -14,5.57 14.08,5.562 0 0 1 -14.1,-5.57 14.08,5.562 0 0 1 14.1,-5.56 14.08,5.562 0 0 1 14,5.56 z" />
    <path
       id="path1-6-70-0"
       style="fill-opacity:0.75;stroke-width:2.71029;stroke-dasharray:1.35515, 1.35515"
       transform="rotate(47.35)"
       d="m 155.7,-53.74 a 14.08,5.562 0 0 1 -14.1,5.56 14.08,5.562 0 0 1 -14.1,-5.56 14.08,5.562 0 0 1 14.1,-5.56 14.08,5.562 0 0 1 14.1,5.56 z" />
    <path
       id="path1-6-7-3"
       style="fill-opacity:0.75;stroke-width:1.29652;stroke-dasharray:0.64826, 0.64826"
       d="m 105.8,33.87 a 4.233,4.233 0 0 1 -4.2,4.23 4.233,4.233 0 0 1 -4.23,-4.23 4.233,4.233 0 0 1 4.23,-4.24 4.233,4.233 0 0 1 4.2,4.24 z" />
    <path
       id="circle114"
       style="fill-opacity:0.75;stroke-width:2.03713;stroke-dasharray:1.01856, 1.01856"
       d="m 105.8,67.73 a 4.233,10.45 0 0 1 -4.2,10.45 4.233,10.45 0 0 1 -4.23,-10.45 4.233,10.45 0 0 1 4.23,-10.45 4.233,10.45 0 0 1 4.2,10.45 z" />
    <path
       id="circle114-0"
       style="fill-opacity:0.75;stroke-width:2.67663;stroke-dasharray:1.33831, 1.33831"
       d="M 141,67.73 A 5.562,13.73 0 0 1 135.5,81.47 5.562,13.73 0 0 1 129.9,67.73 5.562,13.73 0 0 1 135.5,54 5.562,13.73 0 0 1 141,67.73 Z" />
    <path
       id="circle115"
       style="fill-opacity:0.75;stroke-width:1.29652;stroke-dasharray:0.64826, 0.64826"
       d="m 105.8,101.6 a 4.233,4.233 0 0 1 -4.2,4.2 4.233,4.233 0 0 1 -4.23,-4.2 4.233,4.233 0 0 1 4.23,-4.23 4.233,4.233 0 0 1 4.2,4.23 z" />
    <path
       id="circle116"
       style="fill-opacity:0.75;stroke-width:2.01117;stroke-dasharray:1.00559, 1.00559"
       d="m 145.7,101.6 a 10.19,4.233 0 0 1 -10.2,4.2 10.19,4.233 0 0 1 -10.2,-4.2 10.19,4.233 0 0 1 10.2,-4.23 10.19,4.233 0 0 1 10.2,4.23 z" />
    <path
       id="circle117"
       style="fill-opacity:0.75;stroke-width:1.29652;stroke-dasharray:0.64826, 0.64826"
       d="m 173.6,101.6 a 4.233,4.233 0 0 1 -4.3,4.2 4.233,4.233 0 0 1 -4.2,-4.2 4.233,4.233 0 0 1 4.2,-4.23 4.233,4.233 0 0 1 4.3,4.23 z" />
    <path
       id="circle118"
       style="fill-opacity:0.75;stroke-width:2.02419;stroke-dasharray:1.0121, 1.0121"
       d="m 173.6,67.73 a 4.233,10.32 0 0 1 -4.3,10.32 4.233,10.32 0 0 1 -4.2,-10.32 4.233,10.32 0 0 1 4.2,-10.32 4.233,10.32 0 0 1 4.3,10.32 z" />
    <path
       id="path1-6-7"
       style="fill-opacity:0.75;stroke-width:1.29652;stroke-dasharray:0.64826, 0.64826"
       d="m 173.6,33.87 a 4.233,4.233 0 0 1 -4.3,4.23 4.233,4.233 0 0 1 -4.2,-4.23 4.233,4.233 0 0 1 4.2,-4.24 4.233,4.233 0 0 1 4.3,4.24 z" />
    <path
       id="path1-6-7-4-8-6-2"
       style="fill-opacity:0.75;stroke-width:0.523535;stroke-dasharray:0.261768, 0.261768"
       d="m 239.2,67.73 a 2.117,1.381 0 0 1 -2.1,1.38 2.117,1.381 0 0 1 -2.1,-1.38 2.117,1.381 0 0 1 2.1,-1.38 2.117,1.381 0 0 1 2.1,1.38 z" />
    <path
       id="circle119"
       style="fill-opacity:0.75;stroke-width:0.648261;stroke-dasharray:0.32413, 0.32413"
       d="m 205.3,67.73 a 2.117,2.117 0 0 1 -2.1,2.12 2.117,2.117 0 0 1 -2.1,-2.12 2.117,2.117 0 0 1 2.1,-2.11 2.117,2.117 0 0 1 2.1,2.11 z" />
    <path
       id="path1-6-7-4-7"
       style="fill-opacity:0.75;stroke-width:0.868644;stroke-dasharray:0.434322, 0.434322"
       d="m 69.85,33.87 a 2.117,3.8 0 0 1 -2.12,3.8 2.117,3.8 0 0 1 -2.11,-3.8 2.117,3.8 0 0 1 2.11,-3.8 2.117,3.8 0 0 1 2.12,3.8 z" />
    <path
       id="circle119-6"
       style="fill-opacity:0.75;stroke-width:0.648261;stroke-dasharray:0.32413, 0.32413"
       d="m 69.85,67.73 a 2.117,2.117 0 0 1 -2.12,2.12 2.117,2.117 0 0 1 -2.11,-2.12 2.117,2.117 0 0 1 2.11,-2.11 2.117,2.117 0 0 1 2.12,2.11 z" />
    <path
       id="circle121-4"
       style="fill-opacity:0.75;stroke-width:0.920546;stroke-dasharray:0.460272, 0.460272"
       d="m 69.85,101.6 a 2.117,4.268 0 0 1 -2.12,4.3 2.117,4.268 0 0 1 -2.12,-4.3 2.117,4.268 0 0 1 2.12,-4.26 2.117,4.268 0 0 1 2.12,4.26 z" />
    <path
       id="path1-6-7-4-8-6-2-3"
       style="fill-opacity:0.75;stroke-width:0.523535;stroke-dasharray:0.261768, 0.261768"
       d="m 35.98,67.73 a 2.117,1.381 0 0 1 -2.11,1.38 2.117,1.381 0 0 1 -2.12,-1.38 2.117,1.381 0 0 1 2.12,-1.38 2.117,1.381 0 0 1 2.11,1.38 z" />
    <path
       id="ellipse160"
       style="fill-opacity:0.75;stroke-width:0.868644;stroke-dasharray:0.434322, 0.434322"
       d="m 205.3,33.87 a 2.117,3.8 0 0 1 -2.1,3.8 2.117,3.8 0 0 1 -2.1,-3.8 2.117,3.8 0 0 1 2.1,-3.8 2.117,3.8 0 0 1 2.1,3.8 z" />
    <path
       id="ellipse161"
       style="fill-opacity:0.75;stroke-width:0.920546;stroke-dasharray:0.460272, 0.460272"
       d="m 205.3,101.6 a 2.117,4.268 0 0 1 -2.1,4.3 2.117,4.268 0 0 1 -2.1,-4.3 2.117,4.268 0 0 1 2.1,-4.27 2.117,4.268 0 0 1 2.1,4.27 z" />
    <path
       id="ellipse163"
       style="fill-opacity:0.75;stroke-width:2.71029;stroke-dasharray:1.35515, 1.35515"
       transform="rotate(-45.09)"
       d="m 61.76,143.8 a 14.08,5.562 0 0 1 -14.08,5.5 14.08,5.562 0 0 1 -14.08,-5.5 14.08,5.562 0 0 1 14.08,-5.6 14.08,5.562 0 0 1 14.08,5.6 z" />
  </g>
</svg>
